<?xml version="1.0" encoding="UTF-8" standalone="no"?>
<svg
   xmlns:dc="http://purl.org/dc/elements/1.1/"
   xmlns:cc="http://creativecommons.org/ns#"
   xmlns:rdf="http://www.w3.org/1999/02/22-rdf-syntax-ns#"
   xmlns:svg="http://www.w3.org/2000/svg"
   xmlns="http://www.w3.org/2000/svg"
   xmlns:sodipodi="http://sodipodi.sourceforge.net/DTD/sodipodi-0.dtd"
   xmlns:inkscape="http://www.inkscape.org/namespaces/inkscape"
   version="1.1"
   id="Layer_1"
   x="0px"
   y="0px"
   viewBox="0 0 93.504265 24"
   xml:space="preserve"
   sodipodi:docname="judged.svg"
   width="93.504265"
   height="24"
   inkscape:version="1.0 (4035a4f, 2020-05-01)"><metadata
   id="metadata858"><rdf:RDF><cc:Work
       rdf:about=""><dc:format>image/svg+xml</dc:format><dc:type
         rdf:resource="http://purl.org/dc/dcmitype/StillImage" /><dc:title></dc:title></cc:Work></rdf:RDF></metadata><defs
   id="defs856" /><sodipodi:namedview
   fit-margin-bottom="0"
   fit-margin-right="0"
   fit-margin-left="0"
   fit-margin-top="0"
   inkscape:document-rotation="0"
   pagecolor="#ffffff"
   bordercolor="#666666"
   borderopacity="1"
   objecttolerance="10"
   gridtolerance="10"
   guidetolerance="10"
   inkscape:pageopacity="0"
   inkscape:pageshadow="2"
   inkscape:window-width="1329"
   inkscape:window-height="811"
   id="namedview854"
   showgrid="false"
   inkscape:zoom="2.8993489"
   inkscape:cx="-31.44885"
   inkscape:cy="9.080861"
   inkscape:window-x="0"
   inkscape:window-y="25"
   inkscape:window-maximized="0"
   inkscape:current-layer="Layer_1" />
<style
   type="text/css"
   id="style833">
	.st0{enable-background:new    ;}
</style>

<g
   id="g1458"
   transform="translate(-20.195737,-13)"><g
     id="g851"
     transform="translate(-26,-46)">
	<g
   id="g849"
   class="st0">
		<path
   id="path835"
   d="m 77.1,66.3 v 9.4 c 0,1.4 -0.1,1.9 -0.6,2.4 -0.5,0.6 -1.2,0.8 -2.3,0.8 h -1.5 v -2.3 h 0.5 c 0.7,0 1,-0.4 1,-1.2 v -9.3 h 2.9 z m 0,-1.3 h -2.8 v -2.3 h 2.8 z" />
		<path
   id="path837"
   d="m 88.4,76 h -2.7 v -1.1 c -0.7,1 -1.4,1.3 -2.6,1.3 -1,0 -1.9,-0.4 -2.6,-1 -0.7,-0.7 -0.9,-1.5 -0.9,-2.9 v -6.1 h 2.8 v 5.4 c 0,0.9 0,1.2 0.3,1.5 0.3,0.4 0.7,0.6 1.2,0.6 0.5,0 1,-0.2 1.2,-0.6 0.3,-0.3 0.3,-0.6 0.3,-1.5 v -5.4 h 2.8 V 76 Z" />
		<path
   id="path839"
   d="m 100,76 h -2.7 v -1 c -0.7,0.9 -1.5,1.3 -2.7,1.3 -2.5,0 -4.2,-2 -4.2,-5.1 0,-3.1 1.7,-5.1 4.3,-5.1 1,0 1.8,0.3 2.5,1 v -4.4 h 2.8 z m -6.8,-4.8 c 0,1.7 0.8,2.8 2,2.8 1.2,0 2,-1.1 2,-2.8 0,-1.7 -0.8,-2.8 -2,-2.8 -1.2,0 -2,1.1 -2,2.8 z" />
		<path
   id="path841"
   d="m 111.8,66.4 v 8.7 c 0,1.6 -0.2,2.3 -0.9,2.9 -0.9,0.9 -2.2,1.3 -3.9,1.3 -2.7,0 -4.3,-1.1 -4.5,-3.1 h 2.9 c 0.2,0.6 0.8,0.9 1.7,0.9 0.6,0 1,-0.1 1.3,-0.4 0.4,-0.3 0.5,-0.7 0.5,-1.7 v -0.6 c -0.9,0.8 -1.5,1 -2.6,1 -2.5,0 -4.4,-1.9 -4.4,-4.7 0,-2.7 1.8,-4.7 4.3,-4.7 1.3,0 2.2,0.5 2.8,1.5 l -0.1,-1.2 h 2.9 z m -7,4.4 c 0,1.4 0.9,2.4 2.1,2.4 1.3,0 2.1,-0.9 2.1,-2.4 0,-1.4 -0.9,-2.4 -2.1,-2.4 -1.2,0 -2.1,0.9 -2.1,2.4 z" />
		<path
   id="path843"
   d="m 116.7,72 c 0.2,1.3 1,2 2.2,2 0.8,0 1.3,-0.3 1.7,-0.9 h 2.9 c -0.5,1.9 -2.3,3.1 -4.6,3.1 -3,0 -5,-2 -5,-5.1 0,-3 2,-5.1 4.9,-5.1 2,0 3.6,1 4.3,2.8 0.3,0.8 0.5,1.7 0.5,3.1 h -6.9 z m 4,-2 c -0.1,-1.1 -0.8,-1.8 -1.9,-1.8 -1.1,0 -1.8,0.6 -2,1.8 z" />
		<path
   id="path845"
   d="m 128.4,62.7 v 2.4 c 0,1.9 -1,3.2 -2.9,3.6 v -1.1 c 0.9,-0.3 1.4,-1.1 1.5,-2.1 h -1.4 v -2.8 z" />
		<path
   id="path847"
   d="M 139.7,76 H 137 v -1 c -0.7,0.9 -1.5,1.3 -2.7,1.3 -2.5,0 -4.2,-2 -4.2,-5.1 0,-3.1 1.7,-5.1 4.3,-5.1 1,0 1.8,0.3 2.5,1 v -4.4 h 2.8 V 76 Z m -6.8,-4.8 c 0,1.7 0.8,2.8 2,2.8 1.2,0 2,-1.1 2,-2.8 0,-1.7 -0.8,-2.8 -2,-2.8 -1.2,0 -2,1.1 -2,2.8 z" />
	</g>
</g><path
     style="fill:#00bc7b;fill-rule:evenodd;stroke-width:0.799989"
     class="a"
     d="m 34.556554,13 a 3.2967552,3.2967552 0 0 0 -3.244756,3.332755 3.2983552,3.2983552 0 0 0 2.807162,3.279955 v 3.056759 a 3.2751555,3.2751555 0 0 0 -2.762363,2.832761 h -4.719936 a 3.2695556,3.2695556 0 0 0 -3.199956,-2.879961 3.3303548,3.3303548 0 0 0 0,6.65831 3.2695556,3.2695556 0 0 0 3.199956,-2.879961 h 4.719936 a 3.241556,3.241556 0 1 0 3.639151,-3.731149 V 19.61591 A 3.2975552,3.2975552 0 0 0 37.79571,16.335955 3.2935553,3.2935553 0 0 0 34.556554,13 Z m -11.119849,1.903174 a 1.4279806,1.4279806 0 1 0 1.395181,1.429581 1.4119808,1.4119808 0 0 0 -1.395181,-1.429581 z m 0,19.241339 a 1.4279806,1.4279806 0 1 0 1.391181,1.425581 1.4087809,1.4087809 0 0 0 -1.391181,-1.425581 z m 11.119849,0 a 1.4279806,1.4279806 0 1 0 1.387981,1.425581 1.4111808,1.4111808 0 0 0 -1.387981,-1.425581 z"
     id="path864" /></g></svg>
